<svg xmlns="http://www.w3.org/2000/svg" fill="#fff" viewBox="0 0 324 356">
  <path fill="#fff" d="M317.275 86.2322c11.549 17.9618 7.867 40.2068-8.315 52.1218-17.263 12.713-41.195 11.344-56.373-3.43-6.908-6.724-11.356-15.033-10.383-24.353 1.301-12.4594-4.076-20.0834-15.302-25.7988-9.769-4.9727-18.927-11.0358-28.205-16.8321-6.204-3.8764-12.17-4.3887-19.037-1.2558-15.134 6.9055-31.999 3.6987-43.069-7.6776-10.546-10.8372-12.456-28.2858-4.536-41.4362C140.117 4.18629 155.871-2.39655 172.203.795044 187.813 3.84533 200.385 15.9574 200.76 31.3945c.306 12.6182 6.002 20.0154 17.232 25.5128 8.437 4.1304 16.401 9.2001 24.256 14.2914 7.493 4.8576 14.589 4.9948 22.93 1.5641 19.856-8.1669 38.551-3.1286 52.097 13.4694Zm-31.887 43.1628c2.269-.637 4.693-.98 6.78-1.963 8.277-3.903 13.066-10.045 13.146-19.074.082-9.4095-4.456-16.183-13.323-20.1481-8.492-3.7976-16.612-2.7692-23.855 2.9982-7.078 5.6349-9.643 15.5729-6.359 24.0809 3.461 8.966 11.577 14.042 23.611 14.106ZM175.143 52.4605c9.077-6.44 12.308-14.6234 9.269-23.4757-2.742-7.9869-10.292-13.4782-19.08-13.8748-9.086-.41-16.846 4.0537-20.534 11.8122-3.699 7.7799-2.05 16.2603 4.324 22.2388 6.948 6.5166 15.316 7.744 26.021 3.2995Z"/>
  <path fill="#fff" d="M61.4222 134.733c-10.041 9.126-21.9833 11.448-33.7006 6.577-11.4158-4.745-16.7718-13.474-17.1411-24.908-.3537-10.953 7.2087-21.6029 17.749-25.8863 12.0157-4.8827 26.8923-1.4173 34.483 8.0329 8.5169 10.6034 8.0828 24.9404-1.3903 36.1844Zm-27.1-3.745c1.7479.274 3.4903.744 5.2449.789 8.5606.222 14.9558-4.893 16.6199-13.158 1.4734-7.316-3.0068-14.831-10.4983-17.608-7.4073-2.7464-15.6775.141-19.9206 6.954-5.1548 8.277-2.039 17.458 8.5541 23.023Z"/>
  <path fill="ufff" d="M226.098 234.064c-17.052 1.645-27.745 10.391-33.842 24.558-4.985 11.582-13.863 18.699-27.12 18.604-13.494-.097-23.222-6.709-28.316-18.898-3.519-8.418-8.852-15.305-17.708-19.703-5.209-2.587-10.729-2.589-16.145-3.448-20.6092-3.266-31.5281-20.862-23.3642-38.973 4.4604-9.896 4.3306-18.742-.8951-28.474-11.7278-21.842 1.9421-42.223 27.8813-42.857 11.104-.271 18.708-6.551 24.709-14.707 3.058-4.155 5.482-8.724 8.526-12.889 12.748-17.4439 38.916-16.3365 50.001 2.0862 1.566 2.6018 2.804 5.3868 4.097 8.1268 5.347 11.339 14.831 17.242 27.649 18.586 20.591 2.159 32.27 19.628 24.931 38.101-3.727 9.378-2.868 17.8 2.683 26.253 12.705 19.342 1.457 40.855-23.087 43.634Zm-.331-47.708c-9.084-4.523-17.027-1.689-24.695 4.129.57-4.21 1.996-7.535 2.395-10.965.422-3.628 2.139-4.519 5.717-4.783 12.344-.905 20.421-10.355 18.299-20.978-2.097-10.494-13.634-17.298-24.968-14.175-3.739 1.03-6.402.757-9.236-1.525-1.957-1.576-4.089-3.016-6.325-4.214-3.498-1.872-4.175-4.257-3.253-7.953 1.853-7.434-.979-13.733-7.096-18.461-5.977-4.62-12.84-6.008-20.029-2.618-7.089 3.343-12.29 9.005-11.407 16.387.832 6.95-2.477 9.821-7.762 12.551-2.259 1.167-4.432 2.52-6.507 3.963-2.96 2.058-5.829 2.343-9.442 1.216-8.248-2.577-17.119.217-21.855 6.339-4.8979 6.333-5.2987 15.021-.9744 21.125 4.8884 6.899 13.0584 9.777 21.9304 7.843 1.975-.43 3.807-2.141 6.421-.72-2.704 4.997-2.599 11.1-11.869 11.274-9.965.187-17.8514 10.75-16.6687 19.435 1.3888 10.2 10.6417 18.514 21.0007 16.312 8.497-1.806 13.414 1.537 18.894 5.817 1.682 1.315 3.387 2.642 5.251 3.701 2.979 1.693 3.576 3.625 2.789 6.996-1.762 7.556.501 14.204 7.467 18.799 6.216 4.101 13.057 4.61 19.733 1.321 7.473-3.684 11.336-9.713 11.081-17.864-.047-1.464-1.139-3.321.143-4.347 7.262-5.811 14.797-11.306 23.476-15.155.9-.4 2.314.161 3.473.363 10.116 1.753 19.136-2.544 22.979-10.97 3.61-7.908.409-16.716-8.962-22.843Z"/>
  <path fill="ufff" d="M128.611 330.154c.539-8.232-2.989-13.599-10.072-17.568-11.958-6.7-23.8253-13.582-35.3549-20.915-8.2271-5.232-15.8012-5.772-25.0768-1.93-23.4205 9.7-49.74053-1.835-56.28429-24.289-4.61878-15.847-.47212-29.967 12.56749-40.836 12.9823-10.823 28.3159-12.537 43.9924-5.985 15.8519 6.627 24.3048 19.064 24.0453 35.183-.1748 10.857 3.8315 17.565 13.5242 22.765 11.2156 6.017 22.0546 12.711 32.6986 19.605 6.671 4.323 12.855 5.11 20.627 2.448 17.618-6.034 34.949 3.027 39.949 20.111 4.615 15.768-4.936 31.807-21.528 36.153-16.91 4.429-33.841-4.854-38.246-20.975-.297-1.087-.541-2.187-.842-3.767Zm-68.85-62.382c4.0575-4.865 5.0981-10.452 4.4455-16.454-1.3195-12.134-13.6625-20.643-27.0757-18.653-12.1437 1.8-20.6497 14.079-17.9698 25.635 2.0153 8.689 7.3655 14.59 16.3234 16.971 9.238 2.455 17.2214-.277 24.2766-7.499Zm84.763 67.313c1.767 2.553 3.999 4.658 6.819 6.165 6.403 3.42 12.674 2.988 18.38-1.209 5.49-4.037 8.648-9.398 7.139-16.165-2.415-10.841-12.407-16.835-22.46-13.782-10.704 3.251-15.002 13.313-9.878 24.991Z"/>
  <path fill="#fff" d="M281.896 217.32c17.515.11 30.15 10.32 31.236 24.795 1.131 15.04-9.206 27.812-24.295 30.021-17.873 2.616-31.906-7.562-34.29-24.871-2.102-15.264 9.496-28.217 27.349-29.945Zm-13.5 33.622c4.281 7.36 11.01 11.212 17.488 10.008 10.064-1.87 16.395-10.378 14.402-19.354-1.846-8.311-11.67-14.041-20.555-11.989-9.514 2.197-14.5 10.967-11.335 21.335Z"/>
  <path fill="ufff" d="M190.428 203.626c2.114-1.893 2.968-4.503 6.222-5.267 1.08 3.952 1.007 8.07 2.675 11.82.989 2.223-.973 3.417-2.63 4.481-3.452 2.217-6.994 4.308-10.407 6.576-4.876 3.24-9.507 5.726-15.736 2.158-3.393-1.943-7.922-1.687-11.531.144-3.974 2.016-7.081 1.21-10.403-1.038-3.654-2.474-7.464-4.742-11.116-7.919 19.338 3.351 37.618 3.274 52.926-10.955Z"/>
  <path fill="ufff" d="M149.842 151.713c-5.709 2.775-9.706 6.943-14.606 11.364-.449-5.21-.84-9.567-1.192-13.927-.103-1.3.854-2.083 1.848-2.694 4.66-2.865 9.355-5.68 14.045-8.502 2.145-1.291 4.167-.561 6.216.32 4.117 1.769 8.709 2.636 12.802 1.241 9.55-3.253 14.351 3.417 20.559 7.898-13.469-.806-26.882-2.473-39.672 4.3Z"/>
  <defs>
    <linearGradient id="a" x1="199" x2="164" y1="118" y2="181" gradientUnits="userSpaceOnUse">
      <stop offset=".1" stop-color="#fff"/>
      <stop offset="1" stop-color="#fff"/>
    </linearGradient>
    <linearGradient id="b" x1="70" x2="36" y1="229" y2="291.5" gradientUnits="userSpaceOnUse">
      <stop offset=".1" stop-color="#fff"/>
      <stop offset="1" stop-color="#fff"/>
    </linearGradient>
    <linearGradient id="c" x1="196" x2="192.5" y1="198" y2="206.5" gradientUnits="userSpaceOnUse">
      <stop stop-color="#fff"/>
      <stop offset="1" stop-color="#1A71B0"/>
    </linearGradient>
    <linearGradient id="d" x1="190" x2="180.5" y1="144" y2="142.5" gradientUnits="userSpaceOnUse">
      <stop stop-color="#fff"/>
      <stop offset="1" stop-color="#fff"/>
    </linearGradient>
  </defs>
</svg>
