<svg
  viewBox="0 0 64 64"
  fill="#fff"
  stroke="#fff"
  xmlns="http://www.w3.org/2000/svg"
  className="w-8 h-8"
>
  <path d="M59.946,26.279C59.105,12.738,48.262,1.895,34.721,1.054C20.399,0.177,7.854,10.603,6.186,24.82c-0.252,2.149,0.479,4.259,2.007,5.786c0.951,0.951,1.187,2.399,0.585,3.603l-4.44,8.881C4.116,43.531,4,44.024,4,44.517c0,1.312,0.787,2.475,2.006,2.963L9,48.677V63h10c4.963,0,9-4.037,9-9V25.425C28,24.64,28.64,24,29.425,24h0.756l0.206-0.728c0.215-0.758,0.513-1.479,0.885-2.144l0.369-0.66l-1.54-1.54l2.828-2.828l1.54,1.54l0.66-0.369c0.664-0.372,1.386-0.67,2.144-0.885L38,16.181V14h4v2.181l0.728,0.206c0.758,0.215,1.479,0.513,2.144,0.885l0.66,0.369l1.54-1.54l2.828,2.828l-1.54,1.54l0.369,0.66c0.372,0.664,0.67,1.386,0.885,2.144L49.819,24H52v4h-2.181l-0.206,0.728c-0.215,0.758-0.513,1.479-0.885,2.144l-0.369,0.66l1.54,1.54l-2.828,2.828l-1.54-1.54l-0.66,0.369c-0.664,0.372-1.386,0.67-2.144,0.885L42,35.819V38h-4v-2.181l-0.728-0.206c-0.758-0.215-1.479-0.513-2.144-0.885l-0.66-0.369l-2.247,2.247l1.414,1.414l1.195-1.195c0.379,0.18,0.769,0.341,1.169,0.481V40h8v-2.693c0.4-0.141,0.79-0.302,1.169-0.481l1.902,1.902l5.656-5.656-1.902-1.902c0.18-0.379,0.341-0.769,0.481-1.169H54v-8h-2.693c-0.141-0.4-0.302-0.79-0.481-1.169l1.902-1.902-5.656-5.656-1.902,1.902C44.79,14.995,44.4,14.834,44,14.693V12h-8v2.693c-0.4,0.141-0.79,0.302-1.169,0.481l-1.902-1.902-5.656,5.656 1.902,1.902c-0.192,0.405-0.363,0.824-0.511,1.254C27.141,22.433,26,23.798,26,25.425V54c0,3.859-3.141,7-7,7h-8V47.323l-4.252-1.701C6.294,45.44,6,45.006,6,44.517c0-0.184,0.044-0.367,0.126-0.532l4.44-8.881c0.987-1.975,0.602-4.35-0.96-5.911-1.092-1.093-1.615-2.601-1.435-4.14C9.717,11.891,21.328,2.216,34.598,3.05C47.133,3.828,57.172,13.867,57.95,26.402c0.434,6.989-1.956,13.636-6.729,18.715C46.443,50.2,39.973,53,33,53h-3v2h3c7.421,0,14.594-3.103,19.679-8.513C57.834,41.001,60.415,33.824,59.946,26.279z"/>
  <path d="M40,32c3.309,0,6-2.691,6-6s-2.691-6-6-6s-6,2.691-6,6S36.691,32,40,32z M40,22c2.206,0,4,1.794,4,4s-1.794,4-4,4-4-1.794-4-4S37.794,22,40,22z"/>
  <rect x="39" y="42" width="2" height="2"/>
  <rect x="39" y="46" width="2" height="2"/>
</svg>
